<svg xmlns="http://www.w3.org/2000/svg" xmlns:xlink="http://www.w3.org/1999/xlink" width="192" zoomAndPan="magnify" viewBox="0 0 144 48" height="64" preserveAspectRatio="xMidYMid meet" version="1.0"><defs><g/><clipPath id="id1"><path d="M 3.292969 26 L 31.945312 26 L 31.945312 33.789062 L 3.292969 33.789062 Z M 3.292969 26 " clip-rule="nonzero"/></clipPath><clipPath id="id2"><path d="M 3.292969 32 L 31.945312 32 L 31.945312 33.789062 L 3.292969 33.789062 Z M 3.292969 32 " clip-rule="nonzero"/></clipPath><clipPath id="id3"><path d="M 6 13.214844 L 29 13.214844 L 29 27 L 6 27 Z M 6 13.214844 " clip-rule="nonzero"/></clipPath><clipPath id="id4"><path d="M 6 13.214844 L 28 13.214844 L 28 27 L 6 27 Z M 6 13.214844 " clip-rule="nonzero"/></clipPath><clipPath id="id5"><path d="M 16 13.214844 L 28 13.214844 L 28 14 L 16 14 Z M 16 13.214844 " clip-rule="nonzero"/></clipPath><clipPath id="id6"><path d="M 3.292969 26 L 31 26 L 31 33.789062 L 3.292969 33.789062 Z M 3.292969 26 " clip-rule="nonzero"/></clipPath></defs><g clip-path="url(#id1)"><path fill="#f7f7f7" d="M 30.707031 33.511719 L 4.53125 33.511719 C 3.769531 33.511719 3.3125 32.671875 3.71875 32.03125 L 7.164062 26.625 C 7.246094 26.496094 7.386719 26.417969 7.539062 26.417969 L 27.699219 26.417969 C 27.851562 26.417969 27.992188 26.496094 28.074219 26.625 L 31.519531 32.03125 C 31.929688 32.671875 31.46875 33.511719 30.707031 33.511719 Z M 30.707031 33.511719 " fill-opacity="1" fill-rule="nonzero"/></g><g clip-path="url(#id2)"><path fill="#289dd2" d="M 31.511719 32.019531 C 31.34375 32.277344 31.058594 32.457031 30.707031 32.457031 L 4.53125 32.457031 C 4.179688 32.457031 3.894531 32.277344 3.726562 32.019531 L 3.71875 32.03125 C 3.308594 32.671875 3.769531 33.511719 4.53125 33.511719 L 30.707031 33.511719 C 31.46875 33.511719 31.925781 32.671875 31.519531 32.03125 Z M 31.511719 32.019531 " fill-opacity="1" fill-rule="nonzero"/></g><g clip-path="url(#id3)"><path fill="#f7f7f7" d="M 27.328125 26.78125 L 7.921875 26.78125 C 7.222656 26.78125 6.652344 26.210938 6.652344 25.511719 L 6.652344 14.679688 C 6.652344 13.980469 7.222656 13.410156 7.921875 13.410156 C 7.921875 13.410156 27.304688 13.410156 27.328125 13.410156 C 28.371094 13.410156 28.550781 14.285156 28.53125 15.101562 C 28.503906 16.300781 28.527344 17.5 28.527344 18.699219 C 28.527344 20.265625 28.523438 21.832031 28.523438 23.398438 C 28.519531 24.46875 29.007812 26.78125 27.328125 26.78125 Z M 27.328125 26.78125 " fill-opacity="1" fill-rule="nonzero"/></g><path fill="#53786d" d="M 25.8125 25.738281 L 9.433594 25.738281 C 8.84375 25.738281 8.363281 25.257812 8.363281 24.667969 L 8.363281 15.523438 C 8.363281 14.933594 8.84375 14.453125 9.433594 14.453125 C 9.433594 14.453125 25.792969 14.453125 25.8125 14.453125 C 26.691406 14.453125 26.847656 15.191406 26.832031 15.878906 C 26.808594 16.890625 26.828125 17.90625 26.828125 18.917969 C 26.828125 20.242188 26.824219 21.5625 26.824219 22.882812 C 26.820312 23.785156 27.230469 25.738281 25.8125 25.738281 Z M 25.8125 25.738281 " fill-opacity="1" fill-rule="nonzero"/><g clip-path="url(#id4)"><path fill="#365b6d" d="M 10.964844 27 C 10.03125 27 9.09375 26.992188 8.15625 26.980469 C 6.429688 26.957031 6.453125 25.269531 6.46875 24.035156 C 6.472656 23.933594 6.472656 23.832031 6.472656 23.738281 C 6.476562 22.933594 6.511719 22.113281 6.542969 21.324219 C 6.574219 20.625 6.605469 19.902344 6.613281 19.191406 C 6.617188 18.957031 6.617188 18.707031 6.605469 18.457031 C 6.605469 17.910156 6.582031 17.335938 6.558594 16.78125 C 6.535156 16.226562 6.515625 15.648438 6.515625 15.101562 C 6.515625 14.140625 7.203125 13.371094 8.148438 13.277344 C 9.535156 13.21875 10.640625 13.238281 11.8125 13.257812 C 12.582031 13.269531 13.375 13.28125 14.328125 13.277344 C 14.386719 13.277344 14.4375 13.324219 14.4375 13.382812 C 14.4375 13.441406 14.390625 13.492188 14.328125 13.492188 C 13.375 13.496094 12.578125 13.484375 11.808594 13.472656 C 10.640625 13.453125 9.542969 13.433594 8.164062 13.488281 C 7.324219 13.574219 6.730469 14.238281 6.730469 15.101562 C 6.730469 15.644531 6.753906 16.21875 6.777344 16.773438 C 6.796875 17.332031 6.820312 17.90625 6.820312 18.453125 C 6.832031 18.703125 6.832031 18.957031 6.828125 19.195312 C 6.820312 19.90625 6.789062 20.632812 6.761719 21.332031 C 6.726562 22.121094 6.695312 22.9375 6.691406 23.738281 C 6.691406 23.835938 6.6875 23.9375 6.6875 24.039062 C 6.667969 25.246094 6.648438 26.746094 8.160156 26.765625 C 11.378906 26.8125 14.625 26.765625 17.765625 26.71875 C 20.894531 26.675781 24.128906 26.628906 27.328125 26.675781 C 27.386719 26.675781 27.4375 26.722656 27.4375 26.78125 C 27.4375 26.84375 27.386719 26.890625 27.328125 26.890625 C 24.128906 26.84375 20.898438 26.890625 17.769531 26.9375 C 15.539062 26.964844 13.253906 27 10.964844 27 Z M 10.964844 27 " fill-opacity="1" fill-rule="nonzero"/></g><path fill="#365b6d" d="M 11.683594 22.925781 C 11.660156 22.925781 11.640625 22.917969 11.621094 22.90625 C 11.570312 22.871094 11.558594 22.804688 11.59375 22.753906 L 15.644531 16.855469 C 15.679688 16.804688 15.746094 16.792969 15.796875 16.828125 C 15.84375 16.859375 15.855469 16.925781 15.824219 16.976562 L 11.769531 22.878906 C 11.75 22.910156 11.71875 22.925781 11.683594 22.925781 Z M 11.683594 22.925781 " fill-opacity="1" fill-rule="nonzero"/><path fill="#365b6d" d="M 16.730469 21.632812 C 16.707031 21.632812 16.6875 21.625 16.667969 21.613281 C 16.621094 21.582031 16.605469 21.515625 16.640625 21.464844 C 17.640625 20.003906 18.574219 18.476562 19.421875 16.925781 C 19.449219 16.871094 19.515625 16.851562 19.566406 16.882812 C 19.617188 16.910156 19.636719 16.976562 19.609375 17.027344 C 18.761719 18.585938 17.820312 20.121094 16.816406 21.585938 C 16.796875 21.617188 16.761719 21.632812 16.730469 21.632812 Z M 16.730469 21.632812 " fill-opacity="1" fill-rule="nonzero"/><path fill="#365b6d" d="M 20.03125 23.023438 C 20.015625 23.023438 20 23.019531 19.984375 23.011719 C 19.929688 22.988281 19.910156 22.921875 19.933594 22.871094 C 20.777344 21.078125 21.703125 19.292969 22.675781 17.566406 C 22.703125 17.515625 22.769531 17.496094 22.820312 17.527344 C 22.875 17.554688 22.890625 17.621094 22.863281 17.671875 C 21.890625 19.394531 20.96875 21.171875 20.125 22.960938 C 20.109375 23 20.070312 23.023438 20.03125 23.023438 Z M 20.03125 23.023438 " fill-opacity="1" fill-rule="nonzero"/><g clip-path="url(#id5)"><path fill="#365b6d" d="M 27.023438 13.515625 C 24.765625 13.480469 22.902344 13.488281 20.929688 13.5 C 19.484375 13.507812 17.984375 13.515625 16.207031 13.503906 C 16.144531 13.503906 16.097656 13.457031 16.097656 13.398438 C 16.097656 13.339844 16.144531 13.289062 16.207031 13.289062 C 17.984375 13.296875 19.480469 13.292969 20.925781 13.285156 C 22.902344 13.273438 24.765625 13.265625 27.023438 13.300781 C 27.085938 13.304688 27.132812 13.351562 27.128906 13.410156 C 27.132812 13.46875 27.082031 13.515625 27.023438 13.515625 Z M 27.023438 13.515625 " fill-opacity="1" fill-rule="nonzero"/></g><path fill="#365b6d" d="M 14.605469 25.980469 C 12.84375 25.980469 11.070312 25.929688 9.320312 25.757812 C 9.015625 25.726562 8.703125 25.679688 8.484375 25.464844 C 8.199219 25.183594 8.203125 24.765625 8.226562 24.359375 C 8.40625 21.460938 8.296875 18.507812 8.191406 15.652344 C 8.175781 15.160156 8.429688 14.785156 8.929688 14.5625 C 9.386719 14.359375 9.90625 14.363281 10.363281 14.367188 L 12.8125 14.382812 C 12.875 14.382812 12.921875 14.433594 12.921875 14.492188 C 12.917969 14.550781 12.871094 14.597656 12.8125 14.597656 L 10.359375 14.582031 C 9.925781 14.578125 9.433594 14.574219 9.015625 14.757812 C 8.597656 14.945312 8.394531 15.242188 8.40625 15.644531 C 8.511719 18.503906 8.621094 21.460938 8.441406 24.371094 C 8.417969 24.726562 8.414062 25.09375 8.632812 25.308594 C 8.804688 25.476562 9.066406 25.515625 9.339844 25.542969 C 12.269531 25.832031 15.265625 25.773438 18.164062 25.71875 L 19.945312 25.683594 C 20.125 25.679688 20.570312 25.6875 21.136719 25.699219 C 22.703125 25.726562 25.324219 25.773438 25.992188 25.640625 C 26.050781 25.628906 26.109375 25.667969 26.117188 25.726562 C 26.128906 25.785156 26.09375 25.839844 26.035156 25.851562 C 25.34375 25.988281 22.707031 25.941406 21.128906 25.914062 C 20.570312 25.902344 20.125 25.894531 19.949219 25.898438 L 18.164062 25.933594 C 16.992188 25.957031 15.800781 25.980469 14.605469 25.980469 Z M 14.605469 25.980469 " fill-opacity="1" fill-rule="nonzero"/><g clip-path="url(#id6)"><path fill="#365b6d" d="M 9.765625 33.789062 C 7.613281 33.789062 5.652344 33.785156 4.800781 33.765625 C 4.011719 33.75 3.542969 33.359375 3.503906 32.703125 C 3.480469 32.234375 3.769531 31.832031 4.019531 31.476562 C 4.09375 31.378906 4.160156 31.285156 4.21875 31.191406 L 7.125 26.628906 C 7.15625 26.578125 7.222656 26.5625 7.273438 26.59375 C 7.324219 26.625 7.339844 26.695312 7.308594 26.742188 L 4.398438 31.308594 C 4.335938 31.40625 4.269531 31.5 4.195312 31.601562 C 3.949219 31.945312 3.699219 32.296875 3.71875 32.691406 C 3.757812 33.417969 4.417969 33.539062 4.804688 33.550781 C 6.902344 33.59375 15.789062 33.5625 17.546875 33.558594 C 19.886719 33.546875 22.441406 33.53125 25.359375 33.507812 C 26.113281 33.503906 26.871094 33.496094 27.625 33.488281 C 28.460938 33.480469 29.300781 33.472656 30.136719 33.46875 C 30.179688 33.46875 30.222656 33.464844 30.261719 33.464844 C 30.355469 33.460938 30.453125 33.457031 30.546875 33.464844 C 30.609375 33.472656 30.652344 33.523438 30.644531 33.582031 C 30.640625 33.644531 30.589844 33.6875 30.527344 33.679688 C 30.445312 33.671875 30.355469 33.675781 30.269531 33.679688 C 30.226562 33.683594 30.179688 33.683594 30.136719 33.683594 C 29.300781 33.6875 28.464844 33.695312 27.625 33.703125 C 26.871094 33.710938 26.113281 33.71875 25.359375 33.722656 C 22.441406 33.746094 19.886719 33.761719 17.546875 33.773438 C 16.503906 33.777344 12.929688 33.789062 9.765625 33.789062 Z M 9.765625 33.789062 " fill-opacity="1" fill-rule="nonzero"/></g><path fill="#365b6d" d="M 27.105469 32.59375 L 4.691406 32.59375 C 4.628906 32.59375 4.582031 32.546875 4.582031 32.488281 C 4.582031 32.429688 4.628906 32.378906 4.691406 32.378906 L 27.105469 32.378906 C 27.167969 32.378906 27.214844 32.429688 27.214844 32.488281 C 27.214844 32.546875 27.167969 32.59375 27.105469 32.59375 Z M 27.105469 32.59375 " fill-opacity="1" fill-rule="nonzero"/><path fill="#289dd2" d="M 29.34375 31.492188 L 6.273438 31.492188 L 8.90625 27.429688 L 26.710938 27.429688 Z M 29.34375 31.492188 " fill-opacity="1" fill-rule="nonzero"/><path fill="#365b6d" d="M 6.886719 30.703125 C 6.832031 30.703125 6.785156 30.664062 6.78125 30.609375 C 6.773438 30.546875 6.8125 30.496094 6.875 30.488281 C 6.921875 30.480469 6.972656 30.476562 7.023438 30.46875 C 7.074219 30.464844 7.125 30.457031 7.175781 30.453125 C 7.179688 30.453125 7.183594 30.453125 7.1875 30.453125 L 28.792969 30.453125 C 28.851562 30.453125 28.898438 30.5 28.898438 30.558594 C 28.898438 30.617188 28.851562 30.667969 28.792969 30.667969 L 7.195312 30.667969 C 7.144531 30.671875 7.097656 30.679688 7.046875 30.683594 C 7 30.691406 6.949219 30.695312 6.898438 30.703125 C 6.894531 30.703125 6.890625 30.703125 6.886719 30.703125 Z M 6.886719 30.703125 " fill-opacity="1" fill-rule="nonzero"/><path fill="#365b6d" d="M 7.4375 29.714844 C 7.382812 29.714844 7.339844 29.675781 7.332031 29.621094 C 7.324219 29.5625 7.367188 29.507812 7.425781 29.5 C 7.476562 29.496094 7.527344 29.488281 7.578125 29.484375 C 7.625 29.476562 7.675781 29.472656 7.726562 29.464844 C 7.730469 29.464844 7.734375 29.464844 7.738281 29.464844 L 28.121094 29.464844 C 28.183594 29.464844 28.230469 29.511719 28.230469 29.574219 C 28.230469 29.632812 28.183594 29.679688 28.121094 29.679688 L 7.746094 29.679688 C 7.695312 29.6875 7.648438 29.691406 7.601562 29.699219 C 7.550781 29.703125 7.503906 29.710938 7.453125 29.714844 C 7.445312 29.714844 7.441406 29.714844 7.4375 29.714844 Z M 7.4375 29.714844 " fill-opacity="1" fill-rule="nonzero"/><path fill="#365b6d" d="M 7.902344 28.683594 C 7.847656 28.683594 7.800781 28.644531 7.796875 28.589844 C 7.789062 28.53125 7.832031 28.476562 7.890625 28.46875 C 7.941406 28.464844 7.992188 28.457031 8.042969 28.453125 C 8.089844 28.449219 8.140625 28.441406 8.191406 28.433594 C 8.195312 28.433594 8.199219 28.433594 8.203125 28.433594 L 27.457031 28.433594 C 27.515625 28.433594 27.5625 28.484375 27.5625 28.542969 C 27.5625 28.601562 27.515625 28.648438 27.457031 28.648438 L 8.210938 28.648438 C 8.160156 28.65625 8.113281 28.660156 8.066406 28.667969 C 8.015625 28.671875 7.964844 28.679688 7.917969 28.683594 C 7.910156 28.683594 7.90625 28.683594 7.902344 28.683594 Z M 7.902344 28.683594 " fill-opacity="1" fill-rule="nonzero"/><path fill="#365b6d" d="M 7.902344 31.601562 C 7.882812 31.601562 7.867188 31.597656 7.847656 31.585938 C 7.796875 31.554688 7.78125 31.488281 7.808594 31.4375 L 10.164062 27.402344 C 10.195312 27.351562 10.257812 27.335938 10.3125 27.363281 C 10.363281 27.394531 10.378906 27.460938 10.347656 27.511719 L 7.996094 31.546875 C 7.976562 31.582031 7.9375 31.601562 7.902344 31.601562 Z M 7.902344 31.601562 " fill-opacity="1" fill-rule="nonzero"/><path fill="#365b6d" d="M 10.375 31.601562 C 10.363281 31.601562 10.347656 31.597656 10.332031 31.589844 C 10.277344 31.566406 10.253906 31.503906 10.277344 31.449219 L 12.101562 27.382812 C 12.125 27.332031 12.1875 27.304688 12.242188 27.332031 C 12.296875 27.355469 12.320312 27.417969 12.296875 27.472656 L 10.472656 31.539062 C 10.457031 31.578125 10.417969 31.601562 10.375 31.601562 Z M 10.375 31.601562 " fill-opacity="1" fill-rule="nonzero"/><path fill="#365b6d" d="M 13.453125 30.703125 C 13.445312 30.703125 13.4375 30.703125 13.429688 30.699219 C 13.371094 30.6875 13.335938 30.628906 13.347656 30.574219 L 14.058594 27.402344 C 14.070312 27.34375 14.128906 27.304688 14.1875 27.320312 C 14.246094 27.332031 14.28125 27.390625 14.269531 27.445312 L 13.558594 30.617188 C 13.546875 30.667969 13.503906 30.703125 13.453125 30.703125 Z M 13.453125 30.703125 " fill-opacity="1" fill-rule="nonzero"/><path fill="#365b6d" d="M 24.492188 31.605469 C 24.457031 31.605469 24.421875 31.585938 24.402344 31.550781 L 22.046875 27.515625 C 22.015625 27.464844 22.035156 27.398438 22.085938 27.367188 C 22.136719 27.339844 22.203125 27.355469 22.234375 27.40625 L 24.585938 31.441406 C 24.617188 31.492188 24.597656 31.558594 24.546875 31.589844 C 24.53125 31.597656 24.511719 31.605469 24.492188 31.605469 Z M 24.492188 31.605469 " fill-opacity="1" fill-rule="nonzero"/><path fill="#365b6d" d="M 26.332031 30.703125 C 26.296875 30.703125 26.257812 30.683594 26.238281 30.648438 L 24.402344 27.496094 C 24.371094 27.445312 24.386719 27.378906 24.4375 27.351562 C 24.492188 27.320312 24.554688 27.335938 24.585938 27.386719 L 26.425781 30.539062 C 26.457031 30.589844 26.4375 30.65625 26.386719 30.6875 C 26.367188 30.699219 26.351562 30.703125 26.332031 30.703125 Z M 26.332031 30.703125 " fill-opacity="1" fill-rule="nonzero"/><path fill="#365b6d" d="M 22.019531 31.605469 C 21.976562 31.605469 21.9375 31.582031 21.921875 31.539062 L 20.097656 27.476562 C 20.074219 27.421875 20.097656 27.359375 20.152344 27.332031 C 20.207031 27.308594 20.269531 27.332031 20.292969 27.386719 L 22.117188 31.453125 C 22.140625 31.507812 22.117188 31.570312 22.0625 31.59375 C 22.050781 31.601562 22.035156 31.605469 22.019531 31.605469 Z M 22.019531 31.605469 " fill-opacity="1" fill-rule="nonzero"/><path fill="#365b6d" d="M 18.941406 30.707031 C 18.890625 30.707031 18.847656 30.671875 18.835938 30.621094 L 18.125 27.449219 C 18.113281 27.390625 18.148438 27.335938 18.207031 27.320312 C 18.265625 27.308594 18.324219 27.34375 18.335938 27.402344 L 19.046875 30.574219 C 19.058594 30.632812 19.023438 30.691406 18.964844 30.703125 C 18.957031 30.703125 18.949219 30.707031 18.941406 30.707031 Z M 18.941406 30.707031 " fill-opacity="1" fill-rule="nonzero"/><path fill="#365b6d" d="M 16.207031 30.703125 C 16.207031 30.703125 16.207031 30.703125 16.203125 30.703125 C 16.144531 30.703125 16.097656 30.652344 16.097656 30.59375 L 16.144531 27.421875 C 16.144531 27.363281 16.195312 27.316406 16.253906 27.316406 C 16.3125 27.316406 16.359375 27.363281 16.359375 27.425781 L 16.3125 30.597656 C 16.3125 30.65625 16.265625 30.703125 16.207031 30.703125 Z M 16.207031 30.703125 " fill-opacity="1" fill-rule="nonzero"/><path fill="#365b6d" d="M 28.585938 20.890625 C 28.527344 20.890625 28.480469 20.84375 28.480469 20.785156 L 28.480469 16.058594 C 28.480469 16 28.527344 15.953125 28.585938 15.953125 C 28.644531 15.953125 28.695312 16 28.695312 16.058594 L 28.695312 20.785156 C 28.695312 20.84375 28.644531 20.890625 28.585938 20.890625 Z M 28.585938 20.890625 " fill-opacity="1" fill-rule="nonzero"/><path fill="#365b6d" d="M 28.585938 23.78125 C 28.527344 23.78125 28.480469 23.730469 28.480469 23.671875 L 28.480469 22.277344 C 28.480469 22.21875 28.527344 22.167969 28.585938 22.167969 C 28.644531 22.167969 28.695312 22.21875 28.695312 22.277344 L 28.695312 23.671875 C 28.695312 23.730469 28.644531 23.78125 28.585938 23.78125 Z M 28.585938 23.78125 " fill-opacity="1" fill-rule="nonzero"/><g fill="#06444a" fill-opacity="1"><g transform="translate(31.985144, 28.566627)"><g><path d="M 6.109375 -8.765625 C 5.765625 -8.765625 5.453125 -8.6875 5.171875 -8.53125 C 4.890625 -8.382812 4.648438 -8.171875 4.453125 -7.890625 C 4.265625 -7.609375 4.117188 -7.265625 4.015625 -6.859375 C 3.910156 -6.453125 3.859375 -5.992188 3.859375 -5.484375 C 3.859375 -4.785156 3.945312 -4.195312 4.125 -3.71875 C 4.300781 -3.25 4.566406 -2.894531 4.921875 -2.65625 C 5.285156 -2.414062 5.738281 -2.296875 6.28125 -2.296875 C 6.78125 -2.296875 7.253906 -2.363281 7.703125 -2.5 C 8.160156 -2.632812 8.625 -2.796875 9.09375 -2.984375 L 9.09375 -0.46875 C 8.601562 -0.25 8.097656 -0.09375 7.578125 0 C 7.066406 0.101562 6.523438 0.15625 5.953125 0.15625 C 4.753906 0.15625 3.773438 -0.0820312 3.015625 -0.5625 C 2.253906 -1.039062 1.691406 -1.703125 1.328125 -2.546875 C 0.960938 -3.390625 0.78125 -4.375 0.78125 -5.5 C 0.78125 -6.332031 0.894531 -7.097656 1.125 -7.796875 C 1.363281 -8.492188 1.707031 -9.097656 2.15625 -9.609375 C 2.613281 -10.117188 3.175781 -10.515625 3.84375 -10.796875 C 4.519531 -11.078125 5.285156 -11.21875 6.140625 -11.21875 C 6.679688 -11.21875 7.242188 -11.15625 7.828125 -11.03125 C 8.421875 -10.90625 9.003906 -10.707031 9.578125 -10.4375 L 8.65625 -8.078125 C 8.25 -8.273438 7.835938 -8.4375 7.421875 -8.5625 C 7.015625 -8.695312 6.578125 -8.765625 6.109375 -8.765625 Z M 6.109375 -8.765625 "/></g></g></g><g fill="#06444a" fill-opacity="1"><g transform="translate(42.026939, 28.566627)"><g><path d="M 10.671875 0 L 7.671875 0 L 7.671875 -4.5 L 4.203125 -4.5 L 4.203125 0 L 1.1875 0 L 1.1875 -11.046875 L 4.203125 -11.046875 L 4.203125 -6.953125 L 7.671875 -6.953125 L 7.671875 -11.046875 L 10.671875 -11.046875 Z M 10.671875 0 "/></g></g></g><g fill="#06444a" fill-opacity="1"><g transform="translate(53.882151, 28.566627)"><g><path d="M 7.75 0 L 1.1875 0 L 1.1875 -11.046875 L 7.75 -11.046875 L 7.75 -8.65625 L 4.1875 -8.65625 L 4.1875 -6.921875 L 7.5 -6.921875 L 7.5 -4.515625 L 4.1875 -4.515625 L 4.1875 -2.4375 L 7.75 -2.4375 Z M 7.75 0 "/></g></g></g><g fill="#06444a" fill-opacity="1"><g transform="translate(62.374986, 28.566627)"><g><path d="M 4.8125 -11.046875 C 5.820312 -11.046875 6.65625 -10.925781 7.3125 -10.6875 C 7.976562 -10.445312 8.476562 -10.082031 8.8125 -9.59375 C 9.15625 -9.113281 9.328125 -8.507812 9.328125 -7.78125 C 9.328125 -7.332031 9.25 -6.925781 9.09375 -6.5625 C 8.945312 -6.195312 8.734375 -5.867188 8.453125 -5.578125 C 8.171875 -5.285156 7.835938 -5.03125 7.453125 -4.8125 L 10.671875 0 L 7.28125 0 L 4.9375 -4.015625 L 4.1875 -4.015625 L 4.1875 0 L 1.1875 0 L 1.1875 -11.046875 Z M 4.765625 -8.796875 L 4.1875 -8.796875 L 4.1875 -6.265625 L 4.734375 -6.265625 C 5.191406 -6.265625 5.566406 -6.363281 5.859375 -6.5625 C 6.160156 -6.769531 6.3125 -7.132812 6.3125 -7.65625 C 6.3125 -8.007812 6.1875 -8.285156 5.9375 -8.484375 C 5.695312 -8.691406 5.304688 -8.796875 4.765625 -8.796875 Z M 4.765625 -8.796875 "/></g></g></g><g fill="#06444a" fill-opacity="1"><g transform="translate(72.847467, 28.566627)"><g><path d="M 5.140625 -6.953125 L 7.046875 -11.046875 L 10.28125 -11.046875 L 6.640625 -4.3125 L 6.640625 0 L 3.640625 0 L 3.640625 -4.21875 L 0 -11.046875 L 3.25 -11.046875 Z M 5.140625 -6.953125 "/></g></g></g><g fill="#06444a" fill-opacity="1"><g transform="translate(83.123495, 28.566627)"><g><path d="M 1.1875 0 L 1.1875 -11.046875 L 4.1875 -11.046875 L 4.1875 -2.40625 L 8.4375 -2.40625 L 8.4375 0 Z M 1.1875 0 "/></g></g></g><g fill="#06444a" fill-opacity="1"><g transform="translate(92.130132, 28.566627)"><g/></g></g><g fill="#06444a" fill-opacity="1"><g transform="translate(96.149872, 28.566627)"><g><path d="M 6.109375 -8.765625 C 5.765625 -8.765625 5.453125 -8.6875 5.171875 -8.53125 C 4.890625 -8.382812 4.648438 -8.171875 4.453125 -7.890625 C 4.265625 -7.609375 4.117188 -7.265625 4.015625 -6.859375 C 3.910156 -6.453125 3.859375 -5.992188 3.859375 -5.484375 C 3.859375 -4.785156 3.945312 -4.195312 4.125 -3.71875 C 4.300781 -3.25 4.566406 -2.894531 4.921875 -2.65625 C 5.285156 -2.414062 5.738281 -2.296875 6.28125 -2.296875 C 6.78125 -2.296875 7.253906 -2.363281 7.703125 -2.5 C 8.160156 -2.632812 8.625 -2.796875 9.09375 -2.984375 L 9.09375 -0.46875 C 8.601562 -0.25 8.097656 -0.09375 7.578125 0 C 7.066406 0.101562 6.523438 0.15625 5.953125 0.15625 C 4.753906 0.15625 3.773438 -0.0820312 3.015625 -0.5625 C 2.253906 -1.039062 1.691406 -1.703125 1.328125 -2.546875 C 0.960938 -3.390625 0.78125 -4.375 0.78125 -5.5 C 0.78125 -6.332031 0.894531 -7.097656 1.125 -7.796875 C 1.363281 -8.492188 1.707031 -9.097656 2.15625 -9.609375 C 2.613281 -10.117188 3.175781 -10.515625 3.84375 -10.796875 C 4.519531 -11.078125 5.285156 -11.21875 6.140625 -11.21875 C 6.679688 -11.21875 7.242188 -11.15625 7.828125 -11.03125 C 8.421875 -10.90625 9.003906 -10.707031 9.578125 -10.4375 L 8.65625 -8.078125 C 8.25 -8.273438 7.835938 -8.4375 7.421875 -8.5625 C 7.015625 -8.695312 6.578125 -8.765625 6.109375 -8.765625 Z M 6.109375 -8.765625 "/></g></g></g><g fill="#06444a" fill-opacity="1"><g transform="translate(106.191667, 28.566627)"><g><path d="M 10.671875 0 L 7.671875 0 L 7.671875 -4.5 L 4.203125 -4.5 L 4.203125 0 L 1.1875 0 L 1.1875 -11.046875 L 4.203125 -11.046875 L 4.203125 -6.953125 L 7.671875 -6.953125 L 7.671875 -11.046875 L 10.671875 -11.046875 Z M 10.671875 0 "/></g></g></g><g fill="#06444a" fill-opacity="1"><g transform="translate(118.046879, 28.566627)"><g><path d="M 7.75 0 L 1.1875 0 L 1.1875 -11.046875 L 7.75 -11.046875 L 7.75 -8.65625 L 4.1875 -8.65625 L 4.1875 -6.921875 L 7.5 -6.921875 L 7.5 -4.515625 L 4.1875 -4.515625 L 4.1875 -2.4375 L 7.75 -2.4375 Z M 7.75 0 "/></g></g></g><g fill="#06444a" fill-opacity="1"><g transform="translate(126.539714, 28.566627)"><g><path d="M 11.71875 0 L 7.796875 0 L 3.765625 -7.78125 L 3.703125 -7.78125 C 3.722656 -7.550781 3.742188 -7.269531 3.765625 -6.9375 C 3.785156 -6.601562 3.800781 -6.257812 3.8125 -5.90625 C 3.832031 -5.5625 3.84375 -5.253906 3.84375 -4.984375 L 3.84375 0 L 1.1875 0 L 1.1875 -11.046875 L 5.09375 -11.046875 L 9.125 -3.375 L 9.15625 -3.375 C 9.144531 -3.613281 9.128906 -3.890625 9.109375 -4.203125 C 9.097656 -4.523438 9.085938 -4.847656 9.078125 -5.171875 C 9.066406 -5.503906 9.0625 -5.800781 9.0625 -6.0625 L 9.0625 -11.046875 L 11.71875 -11.046875 Z M 11.71875 0 "/></g></g></g><g fill="#06444a" fill-opacity="1"><g transform="translate(139.43412, 28.566627)"><g/></g></g></svg>