<svg xmlns="http://www.w3.org/2000/svg" xmlns:xlink="http://www.w3.org/1999/xlink" width="40" zoomAndPan="magnify" viewBox="0 0 30 30.000001" height="40" preserveAspectRatio="xMidYMid meet" version="1.0"><defs><clipPath id="id1"><path d="M 0.484375 17 L 29.515625 17 L 29.515625 25 L 0.484375 25 Z M 0.484375 17 " clip-rule="nonzero"/></clipPath><clipPath id="id2"><path d="M 0.484375 23 L 29.515625 23 L 29.515625 25 L 0.484375 25 Z M 0.484375 23 " clip-rule="nonzero"/></clipPath><clipPath id="id3"><path d="M 3 4.101562 L 27 4.101562 L 27 18 L 3 18 Z M 3 4.101562 " clip-rule="nonzero"/></clipPath><clipPath id="id4"><path d="M 3 4.101562 L 25 4.101562 L 25 19 L 3 19 Z M 3 4.101562 " clip-rule="nonzero"/></clipPath><clipPath id="id5"><path d="M 13 4.101562 L 25 4.101562 L 25 5 L 13 5 Z M 13 4.101562 " clip-rule="nonzero"/></clipPath><clipPath id="id6"><path d="M 0.484375 17 L 29 17 L 29 25.148438 L 0.484375 25.148438 Z M 0.484375 17 " clip-rule="nonzero"/></clipPath></defs><g clip-path="url(#id1)"><path fill="#f7f7f7" d="M 28.257812 24.863281 L 1.742188 24.863281 C 0.972656 24.863281 0.507812 24.007812 0.921875 23.351562 L 4.410156 17.820312 C 4.492188 17.6875 4.636719 17.609375 4.789062 17.609375 L 25.210938 17.609375 C 25.363281 17.609375 25.503906 17.6875 25.589844 17.820312 L 29.078125 23.351562 C 29.492188 24.007812 29.027344 24.863281 28.257812 24.863281 Z M 28.257812 24.863281 " fill-opacity="1" fill-rule="nonzero"/></g><g clip-path="url(#id2)"><path fill="#289dd2" d="M 29.070312 23.339844 C 28.902344 23.601562 28.613281 23.785156 28.257812 23.785156 L 1.742188 23.785156 C 1.386719 23.785156 1.097656 23.601562 0.929688 23.339844 L 0.921875 23.351562 C 0.507812 24.007812 0.972656 24.863281 1.742188 24.863281 L 28.257812 24.863281 C 29.027344 24.863281 29.492188 24.007812 29.078125 23.351562 Z M 29.070312 23.339844 " fill-opacity="1" fill-rule="nonzero"/></g><g clip-path="url(#id3)"><path fill="#f7f7f7" d="M 24.832031 17.980469 L 5.175781 17.980469 C 4.46875 17.980469 3.890625 17.394531 3.890625 16.679688 L 3.890625 5.597656 C 3.890625 4.882812 4.46875 4.296875 5.175781 4.296875 C 5.175781 4.296875 24.808594 4.296875 24.832031 4.296875 C 25.886719 4.296875 26.070312 5.191406 26.050781 6.027344 C 26.023438 7.253906 26.050781 8.484375 26.046875 9.710938 C 26.046875 11.3125 26.042969 12.914062 26.042969 14.519531 C 26.042969 15.613281 26.535156 17.980469 24.832031 17.980469 Z M 24.832031 17.980469 " fill-opacity="1" fill-rule="nonzero"/></g><path fill="#53786d" d="M 23.296875 16.914062 L 6.707031 16.914062 C 6.113281 16.914062 5.625 16.417969 5.625 15.816406 L 5.625 6.460938 C 5.625 5.859375 6.113281 5.363281 6.707031 5.363281 C 6.707031 5.363281 23.277344 5.363281 23.296875 5.363281 C 24.191406 5.363281 24.347656 6.121094 24.328125 6.824219 C 24.304688 7.859375 24.328125 8.898438 24.324219 9.933594 C 24.324219 11.289062 24.324219 12.640625 24.320312 13.992188 C 24.320312 14.914062 24.734375 16.914062 23.296875 16.914062 Z M 23.296875 16.914062 " fill-opacity="1" fill-rule="nonzero"/><g clip-path="url(#id4)"><path fill="#365b6d" d="M 8.261719 18.203125 C 7.3125 18.203125 6.363281 18.199219 5.417969 18.183594 C 3.667969 18.160156 3.691406 16.433594 3.707031 15.171875 C 3.710938 15.066406 3.710938 14.964844 3.710938 14.867188 C 3.714844 14.042969 3.75 13.203125 3.785156 12.394531 C 3.8125 11.679688 3.84375 10.941406 3.851562 10.210938 C 3.855469 9.972656 3.855469 9.71875 3.84375 9.464844 C 3.84375 8.90625 3.820312 8.316406 3.796875 7.75 C 3.777344 7.179688 3.753906 6.589844 3.753906 6.03125 C 3.753906 5.042969 4.449219 4.257812 5.410156 4.160156 C 6.8125 4.105469 7.933594 4.121094 9.117188 4.140625 C 9.898438 4.15625 10.703125 4.167969 11.667969 4.164062 C 11.726562 4.164062 11.777344 4.210938 11.777344 4.269531 C 11.777344 4.332031 11.730469 4.382812 11.667969 4.382812 C 10.703125 4.386719 9.894531 4.375 9.113281 4.363281 C 7.933594 4.34375 6.820312 4.324219 5.425781 4.378906 C 4.574219 4.46875 3.972656 5.144531 3.972656 6.03125 C 3.972656 6.585938 3.996094 7.171875 4.015625 7.742188 C 4.039062 8.308594 4.0625 8.902344 4.0625 9.457031 C 4.078125 9.714844 4.074219 9.972656 4.070312 10.214844 C 4.0625 10.945312 4.03125 11.6875 4.003906 12.40625 C 3.96875 13.210938 3.933594 14.046875 3.929688 14.867188 C 3.929688 14.964844 3.929688 15.070312 3.925781 15.175781 C 3.910156 16.40625 3.890625 17.941406 5.421875 17.964844 C 8.679688 18.011719 11.96875 17.960938 15.148438 17.917969 C 18.316406 17.871094 21.59375 17.824219 24.835938 17.871094 C 24.894531 17.871094 24.941406 17.921875 24.941406 17.980469 C 24.941406 18.042969 24.890625 18.089844 24.832031 18.089844 C 21.59375 18.046875 18.320312 18.089844 15.152344 18.136719 C 12.894531 18.167969 10.578125 18.203125 8.261719 18.203125 Z M 8.261719 18.203125 " fill-opacity="1" fill-rule="nonzero"/></g><path fill="#365b6d" d="M 8.988281 14.035156 C 8.964844 14.035156 8.945312 14.027344 8.925781 14.015625 C 8.875 13.980469 8.863281 13.910156 8.898438 13.859375 L 13 7.824219 C 13.035156 7.773438 13.105469 7.761719 13.152344 7.792969 C 13.203125 7.828125 13.214844 7.898438 13.179688 7.945312 L 9.078125 13.984375 C 9.058594 14.015625 9.023438 14.035156 8.988281 14.035156 Z M 8.988281 14.035156 " fill-opacity="1" fill-rule="nonzero"/><path fill="#365b6d" d="M 14.097656 12.710938 C 14.078125 12.710938 14.054688 12.707031 14.039062 12.691406 C 13.988281 12.660156 13.976562 12.589844 14.007812 12.539062 C 15.019531 11.046875 15.96875 9.484375 16.824219 7.894531 C 16.851562 7.839844 16.917969 7.820312 16.972656 7.851562 C 17.027344 7.878906 17.042969 7.945312 17.015625 8 C 16.15625 9.59375 15.203125 11.164062 14.1875 12.664062 C 14.167969 12.695312 14.132812 12.710938 14.097656 12.710938 Z M 14.097656 12.710938 " fill-opacity="1" fill-rule="nonzero"/><path fill="#365b6d" d="M 17.441406 14.136719 C 17.425781 14.136719 17.410156 14.132812 17.394531 14.125 C 17.339844 14.097656 17.320312 14.03125 17.34375 13.976562 C 18.199219 12.144531 19.136719 10.320312 20.121094 8.550781 C 20.152344 8.5 20.21875 8.480469 20.269531 8.511719 C 20.320312 8.539062 20.339844 8.609375 20.3125 8.660156 C 19.328125 10.421875 18.394531 12.242188 17.539062 14.070312 C 17.523438 14.113281 17.484375 14.136719 17.441406 14.136719 Z M 17.441406 14.136719 " fill-opacity="1" fill-rule="nonzero"/><g clip-path="url(#id5)"><path fill="#365b6d" d="M 24.527344 4.40625 C 24.527344 4.40625 24.527344 4.40625 24.523438 4.40625 C 22.238281 4.371094 20.351562 4.378906 18.351562 4.390625 C 16.886719 4.398438 15.371094 4.40625 13.566406 4.394531 C 13.507812 4.394531 13.460938 4.347656 13.460938 4.285156 C 13.460938 4.226562 13.507812 4.175781 13.566406 4.175781 C 15.371094 4.183594 16.886719 4.179688 18.351562 4.171875 C 20.347656 4.160156 22.238281 4.148438 24.527344 4.1875 C 24.585938 4.1875 24.632812 4.238281 24.632812 4.300781 C 24.632812 4.359375 24.585938 4.40625 24.527344 4.40625 Z M 24.527344 4.40625 " fill-opacity="1" fill-rule="nonzero"/></g><path fill="#365b6d" d="M 11.945312 17.160156 C 10.164062 17.160156 8.367188 17.109375 6.59375 16.929688 C 6.285156 16.902344 5.96875 16.851562 5.746094 16.632812 C 5.460938 16.347656 5.460938 15.917969 5.488281 15.5 C 5.667969 12.535156 5.558594 9.515625 5.453125 6.589844 C 5.433594 6.089844 5.691406 5.703125 6.199219 5.476562 C 6.664062 5.269531 7.1875 5.273438 7.648438 5.277344 L 10.132812 5.296875 C 10.191406 5.296875 10.242188 5.347656 10.242188 5.40625 C 10.238281 5.46875 10.191406 5.515625 10.132812 5.515625 L 7.648438 5.496094 C 7.207031 5.496094 6.710938 5.492188 6.289062 5.679688 C 5.863281 5.867188 5.65625 6.171875 5.671875 6.582031 C 5.777344 9.511719 5.886719 12.539062 5.703125 15.515625 C 5.679688 15.878906 5.679688 16.253906 5.898438 16.472656 C 6.070312 16.644531 6.335938 16.683594 6.613281 16.710938 C 9.582031 17.007812 12.617188 16.949219 15.550781 16.894531 L 17.355469 16.859375 C 17.539062 16.855469 17.988281 16.863281 18.5625 16.871094 C 20.148438 16.902344 22.804688 16.945312 23.480469 16.8125 C 23.539062 16.800781 23.597656 16.839844 23.609375 16.902344 C 23.621094 16.960938 23.582031 17.019531 23.523438 17.027344 C 22.820312 17.167969 20.152344 17.121094 18.558594 17.09375 C 17.988281 17.082031 17.539062 17.074219 17.359375 17.078125 L 15.554688 17.113281 C 14.363281 17.136719 13.160156 17.160156 11.945312 17.160156 Z M 11.945312 17.160156 " fill-opacity="1" fill-rule="nonzero"/><g clip-path="url(#id6)"><path fill="#365b6d" d="M 7.042969 25.148438 C 4.867188 25.148438 2.878906 25.144531 2.019531 25.125 C 1.21875 25.109375 0.742188 24.710938 0.707031 24.039062 C 0.679688 23.558594 0.972656 23.148438 1.226562 22.785156 C 1.300781 22.683594 1.367188 22.589844 1.425781 22.492188 L 4.371094 17.824219 C 4.402344 17.769531 4.472656 17.757812 4.523438 17.789062 C 4.574219 17.820312 4.585938 17.890625 4.554688 17.941406 L 1.609375 22.609375 C 1.546875 22.710938 1.476562 22.808594 1.402344 22.914062 C 1.15625 23.261719 0.902344 23.625 0.921875 24.027344 C 0.960938 24.769531 1.628906 24.894531 2.023438 24.90625 C 4.144531 24.949219 13.148438 24.917969 14.929688 24.914062 C 17.296875 24.902344 19.882812 24.886719 22.835938 24.863281 C 23.601562 24.855469 24.367188 24.851562 25.132812 24.84375 C 25.984375 24.835938 26.828125 24.828125 27.679688 24.820312 C 27.71875 24.820312 27.761719 24.820312 27.804688 24.816406 C 27.898438 24.816406 28 24.8125 28.09375 24.820312 C 28.15625 24.824219 28.199219 24.878906 28.191406 24.941406 C 28.1875 25 28.136719 25.046875 28.074219 25.039062 C 27.992188 25.03125 27.898438 25.035156 27.8125 25.039062 C 27.769531 25.039062 27.722656 25.042969 27.679688 25.042969 C 26.832031 25.046875 25.984375 25.054688 25.136719 25.0625 C 24.371094 25.070312 23.605469 25.078125 22.839844 25.082031 C 19.882812 25.105469 17.296875 25.121094 14.929688 25.132812 C 13.867188 25.136719 10.25 25.148438 7.042969 25.148438 Z M 7.042969 25.148438 " fill-opacity="1" fill-rule="nonzero"/></g><path fill="#365b6d" d="M 24.609375 23.929688 L 1.90625 23.929688 C 1.84375 23.929688 1.796875 23.878906 1.796875 23.816406 C 1.796875 23.757812 1.84375 23.707031 1.90625 23.707031 L 24.609375 23.707031 C 24.667969 23.707031 24.71875 23.757812 24.71875 23.816406 C 24.71875 23.878906 24.667969 23.929688 24.609375 23.929688 Z M 24.609375 23.929688 " fill-opacity="1" fill-rule="nonzero"/><path fill="#289dd2" d="M 26.875 22.800781 L 3.511719 22.800781 L 6.175781 18.640625 L 24.207031 18.640625 Z M 26.875 22.800781 " fill-opacity="1" fill-rule="nonzero"/><path fill="#365b6d" d="M 4.128906 21.992188 C 4.074219 21.992188 4.027344 21.953125 4.023438 21.894531 C 4.015625 21.835938 4.058594 21.78125 4.117188 21.773438 C 4.167969 21.765625 4.214844 21.757812 4.269531 21.753906 C 4.320312 21.75 4.371094 21.742188 4.421875 21.738281 C 4.425781 21.734375 4.429688 21.734375 4.433594 21.734375 L 26.316406 21.734375 C 26.375 21.734375 26.425781 21.785156 26.425781 21.84375 C 26.425781 21.90625 26.375 21.957031 26.316406 21.957031 L 4.441406 21.957031 C 4.390625 21.960938 4.34375 21.96875 4.292969 21.972656 C 4.242188 21.980469 4.195312 21.984375 4.144531 21.992188 C 4.136719 21.992188 4.132812 21.992188 4.128906 21.992188 Z M 4.128906 21.992188 " fill-opacity="1" fill-rule="nonzero"/><path fill="#365b6d" d="M 4.6875 20.984375 C 4.632812 20.984375 4.585938 20.941406 4.582031 20.886719 C 4.574219 20.824219 4.617188 20.769531 4.675781 20.761719 C 4.726562 20.753906 4.777344 20.75 4.828125 20.746094 C 4.878906 20.738281 4.929688 20.734375 4.980469 20.726562 C 4.984375 20.726562 4.988281 20.726562 4.992188 20.726562 L 25.636719 20.726562 C 25.699219 20.726562 25.746094 20.777344 25.746094 20.835938 C 25.746094 20.898438 25.699219 20.945312 25.636719 20.945312 L 5 20.945312 C 4.949219 20.953125 4.902344 20.957031 4.855469 20.964844 C 4.804688 20.96875 4.753906 20.976562 4.703125 20.980469 C 4.695312 20.984375 4.691406 20.984375 4.6875 20.984375 Z M 4.6875 20.984375 " fill-opacity="1" fill-rule="nonzero"/><path fill="#365b6d" d="M 5.160156 19.929688 C 5.105469 19.929688 5.058594 19.886719 5.050781 19.832031 C 5.042969 19.769531 5.085938 19.714844 5.144531 19.707031 C 5.195312 19.699219 5.25 19.695312 5.300781 19.691406 C 5.347656 19.683594 5.398438 19.679688 5.449219 19.671875 C 5.453125 19.671875 5.460938 19.671875 5.464844 19.671875 L 24.960938 19.671875 C 25.023438 19.671875 25.070312 19.722656 25.070312 19.78125 C 25.070312 19.84375 25.023438 19.890625 24.960938 19.890625 L 5.46875 19.890625 C 5.421875 19.898438 5.371094 19.902344 5.324219 19.910156 C 5.273438 19.914062 5.222656 19.921875 5.171875 19.925781 C 5.167969 19.929688 5.164062 19.929688 5.160156 19.929688 Z M 5.160156 19.929688 " fill-opacity="1" fill-rule="nonzero"/><path fill="#365b6d" d="M 5.160156 22.910156 C 5.140625 22.910156 5.121094 22.90625 5.105469 22.894531 C 5.050781 22.863281 5.035156 22.796875 5.066406 22.746094 L 7.449219 18.617188 C 7.480469 18.5625 7.546875 18.546875 7.597656 18.578125 C 7.648438 18.609375 7.667969 18.675781 7.636719 18.726562 L 5.253906 22.855469 C 5.234375 22.890625 5.195312 22.910156 5.160156 22.910156 Z M 5.160156 22.910156 " fill-opacity="1" fill-rule="nonzero"/><path fill="#365b6d" d="M 7.664062 22.910156 C 7.648438 22.910156 7.632812 22.90625 7.621094 22.902344 C 7.566406 22.875 7.539062 22.8125 7.566406 22.757812 L 9.410156 18.597656 C 9.4375 18.542969 9.5 18.515625 9.554688 18.542969 C 9.609375 18.566406 9.632812 18.632812 9.609375 18.6875 L 7.761719 22.847656 C 7.746094 22.886719 7.707031 22.910156 7.664062 22.910156 Z M 7.664062 22.910156 " fill-opacity="1" fill-rule="nonzero"/><path fill="#365b6d" d="M 10.78125 21.992188 C 10.773438 21.992188 10.765625 21.992188 10.757812 21.988281 C 10.699219 21.976562 10.660156 21.917969 10.675781 21.859375 L 11.394531 18.613281 C 11.40625 18.554688 11.464844 18.515625 11.523438 18.53125 C 11.582031 18.542969 11.621094 18.601562 11.605469 18.660156 L 10.886719 21.90625 C 10.875 21.957031 10.832031 21.992188 10.78125 21.992188 Z M 10.78125 21.992188 " fill-opacity="1" fill-rule="nonzero"/><path fill="#365b6d" d="M 21.960938 22.914062 C 21.925781 22.914062 21.886719 22.894531 21.867188 22.859375 L 19.484375 18.730469 C 19.453125 18.679688 19.472656 18.609375 19.523438 18.582031 C 19.574219 18.550781 19.640625 18.566406 19.671875 18.621094 L 22.058594 22.75 C 22.085938 22.800781 22.070312 22.867188 22.015625 22.898438 C 22 22.910156 21.980469 22.914062 21.960938 22.914062 Z M 21.960938 22.914062 " fill-opacity="1" fill-rule="nonzero"/><path fill="#365b6d" d="M 23.824219 21.992188 C 23.785156 21.992188 23.75 21.972656 23.730469 21.9375 L 21.867188 18.710938 C 21.835938 18.660156 21.855469 18.59375 21.90625 18.5625 C 21.960938 18.53125 22.027344 18.546875 22.058594 18.601562 L 23.917969 21.824219 C 23.949219 21.878906 23.933594 21.945312 23.878906 21.976562 C 23.859375 21.988281 23.84375 21.992188 23.824219 21.992188 Z M 23.824219 21.992188 " fill-opacity="1" fill-rule="nonzero"/><path fill="#365b6d" d="M 19.457031 22.914062 C 19.414062 22.914062 19.375 22.890625 19.355469 22.847656 L 17.511719 18.691406 C 17.484375 18.636719 17.511719 18.570312 17.566406 18.546875 C 17.621094 18.519531 17.683594 18.546875 17.710938 18.601562 L 19.554688 22.757812 C 19.582031 22.8125 19.554688 22.878906 19.5 22.90625 C 19.488281 22.910156 19.472656 22.914062 19.457031 22.914062 Z M 19.457031 22.914062 " fill-opacity="1" fill-rule="nonzero"/><path fill="#365b6d" d="M 16.339844 21.996094 C 16.289062 21.996094 16.246094 21.960938 16.234375 21.910156 L 15.515625 18.664062 C 15.5 18.605469 15.539062 18.546875 15.597656 18.53125 C 15.65625 18.519531 15.714844 18.558594 15.726562 18.617188 L 16.445312 21.863281 C 16.460938 21.921875 16.421875 21.980469 16.363281 21.992188 C 16.355469 21.992188 16.347656 21.996094 16.339844 21.996094 Z M 16.339844 21.996094 " fill-opacity="1" fill-rule="nonzero"/><path fill="#365b6d" d="M 13.570312 21.992188 C 13.566406 21.992188 13.566406 21.992188 13.566406 21.992188 C 13.507812 21.992188 13.460938 21.941406 13.460938 21.878906 L 13.507812 18.636719 C 13.507812 18.574219 13.554688 18.527344 13.617188 18.527344 C 13.679688 18.527344 13.726562 18.578125 13.726562 18.636719 L 13.679688 21.882812 C 13.675781 21.945312 13.628906 21.992188 13.570312 21.992188 Z M 13.570312 21.992188 " fill-opacity="1" fill-rule="nonzero"/><path fill="#365b6d" d="M 26.109375 11.953125 C 26.046875 11.953125 26 11.90625 26 11.84375 L 26 7.007812 C 26 6.949219 26.046875 6.898438 26.109375 6.898438 C 26.167969 6.898438 26.214844 6.949219 26.214844 7.007812 L 26.214844 11.84375 C 26.214844 11.90625 26.167969 11.953125 26.109375 11.953125 Z M 26.109375 11.953125 " fill-opacity="1" fill-rule="nonzero"/><path fill="#365b6d" d="M 26.109375 14.910156 C 26.046875 14.910156 26 14.859375 26 14.800781 L 26 13.371094 C 26 13.3125 26.046875 13.261719 26.109375 13.261719 C 26.167969 13.261719 26.214844 13.3125 26.214844 13.371094 L 26.214844 14.800781 C 26.214844 14.859375 26.167969 14.910156 26.109375 14.910156 Z M 26.109375 14.910156 " fill-opacity="1" fill-rule="nonzero"/></svg>