<?xml version="1.0" encoding="UTF-8"?>
<svg width="700pt" height="700pt" version="1.1" viewBox="0 0 700 700" xmlns="http://www.w3.org/2000/svg" xmlns:xlink="http://www.w3.org/1999/xlink">
 <g>
  <path d="m558.66 146.83c-0.78516-0.95312-1.7344-1.7344-2.8008-2.2969-7.7852-5.9922-17.359-9.6875-27.887-9.6875h-355.94c-10.527 0-20.105 3.6953-27.832 9.6328-1.2305 0.61719-2.4062 1.457-3.2461 2.6875-9.1289 8.3984-14.953 20.383-14.953 33.711v198.13c0 13.328 5.7695 25.258 14.895 33.656v0.054688c0.95312 1.2891 2.1836 2.2383 3.5273 2.8555 7.7266 5.8242 17.191 9.4648 27.609 9.4648h355.88c10.414 0 19.938-3.6406 27.664-9.4648 0.16797-0.11328 0.28125-0.28125 0.44922-0.39062 10.809-8.457 17.922-21.449 17.922-36.176v-198.07c0.054688-13.555-5.9375-25.648-15.289-34.105zm-386.62 6.3828h355.88c2.0703 0 4.0898 0.28125 6.0469 0.72656l-163.29 118.16c-0.11328 0.054687-0.22266 0.16797-0.39062 0.28125l-20.273 14.613-184.02-133.05c1.9609-0.44922 3.9766-0.73047 6.0469-0.73047zm-27.664 225.85v-198.12c0-6.0469 1.9609-11.594 5.2656-16.129l159.32 115.19-159.32 115.19c-3.3047-4.5352-5.2656-10.078-5.2656-16.129zm383.6 27.723h-355.94c-2.1289 0-4.1445-0.28125-6.1055-0.72656l158.65-114.69 19.992 14.449c0.16797 0.11328 0.39062 0.054688 0.55859 0.16797 1.457 0.89453 3.0234 1.5117 4.7617 1.5117h0.054687 0.054688c1.6797 0 3.3047-0.61719 4.7617-1.5117 0.16797-0.11328 0.39063-0.054687 0.55859-0.16797l19.938-14.449 158.65 114.69c-1.9023 0.44531-3.8633 0.72656-5.9336 0.72656zm27.664-27.723c0 6.0469-2.0156 11.594-5.3203 16.129l-159.32-115.14 159.38-115.25c3.3047 4.5352 5.2656 10.078 5.2656 16.129z"/>
  <use x="70" y="644" xlink:href="#u"/>
  <use x="90.550781" y="644" xlink:href="#d"/>
  <use x="104.359375" y="644" xlink:href="#b"/>
  <use x="123.347656" y="644" xlink:href="#c"/>
  <use x="142.242188" y="644" xlink:href="#a"/>
  <use x="155.628906" y="644" xlink:href="#b"/>
  <use x="174.617188" y="644" xlink:href="#l"/>
  <use x="204.410156" y="644" xlink:href="#k"/>
  <use x="224.453125" y="644" xlink:href="#j"/>
  <use x="252.453125" y="644" xlink:href="#c"/>
  <use x="271.34375" y="644" xlink:href="#h"/>
  <use x="280.945312" y="644" xlink:href="#g"/>
  <use x="300.875" y="644" xlink:href="#f"/>
  <use x="320.8125" y="644" xlink:href="#t"/>
  <use x="340.15625" y="644" xlink:href="#i"/>
  <use x="369.332031" y="644" xlink:href="#f"/>
  <use x="389.265625" y="644" xlink:href="#a"/>
  <use x="402.648438" y="644" xlink:href="#a"/>
  <use x="416.035156" y="644" xlink:href="#c"/>
  <use x="434.929688" y="644" xlink:href="#s"/>
  <use x="454.972656" y="644" xlink:href="#h"/>
  <use x="464.570312" y="644" xlink:href="#g"/>
  <use x="70" y="672" xlink:href="#r"/>
  <use x="82.183594" y="672" xlink:href="#d"/>
  <use x="95.992188" y="672" xlink:href="#e"/>
  <use x="115.226562" y="672" xlink:href="#i"/>
  <use x="154.152344" y="672" xlink:href="#a"/>
  <use x="167.535156" y="672" xlink:href="#q"/>
  <use x="187.46875" y="672" xlink:href="#b"/>
  <use x="216.207031" y="672" xlink:href="#p"/>
  <use x="239.640625" y="672" xlink:href="#e"/>
  <use x="258.878906" y="672" xlink:href="#f"/>
  <use x="278.8125" y="672" xlink:href="#g"/>
  <use x="308.492188" y="672" xlink:href="#o"/>
  <use x="329.015625" y="672" xlink:href="#d"/>
  <use x="342.820312" y="672" xlink:href="#e"/>
  <use x="362.058594" y="672" xlink:href="#n"/>
  <use x="371.65625" y="672" xlink:href="#b"/>
  <use x="390.648438" y="672" xlink:href="#m"/>
  <use x="407.242188" y="672" xlink:href="#a"/>
 </g>
</svg>
